<svg xmlns="http://www.w3.org/2000/svg" xmlns:xlink="http://www.w3.org/1999/xlink" version="1.1" x="0px" y="0px" viewBox="0 0 100 125" style="enable-background:new 0 0 100 100;" xml:space="preserve"><path d="M50,48.5c9.1,0,16.5-7.5,16.5-16.7c0-9.2-7.4-16.7-16.5-16.7s-16.5,7.5-16.5,16.7C33.5,41.1,40.9,48.5,50,48.5z M50,19.2  c6.9,0,12.5,5.7,12.5,12.7c0,7-5.6,12.7-12.5,12.7s-12.5-5.7-12.5-12.7C37.5,24.9,43.1,19.2,50,19.2z M27.1,66.9v13.9h32.8  c1.1,0,2,0.9,2,2s-0.9,2-2,2H25.1c-1.1,0-2-0.9-2-2V66.9c0-7.7,6.3-14,14-14h25.8c4.9,0,9.3,2.5,11.9,6.6c1.4,2.2,2.1,4.8,2.1,7.4  v0.9c0,1.1-0.9,2-2,2s-2-0.9-2-2v-0.9c0-1.9-0.5-3.7-1.5-5.3c-1.8-3-5-4.7-8.5-4.7H37.1C31.6,56.9,27.1,61.4,27.1,66.9z M82.1,88.3  c-1.7,2.3-4.3,3.6-7.2,3.6c-3.3,0-6.1-1.8-7.7-4.4c-0.4,0.3-0.8,0.5-1.3,0.5c-0.4,0-0.7-0.1-1.1-0.3c-0.9-0.6-1.2-1.8-0.6-2.8l2-3.1  c0.3-0.4,0.7-0.8,1.2-0.9c0,0,0,0,0.1,0c0.1,0,0.1,0,0.2,0c0.1,0,0.1,0,0.2,0c0,0,0,0,0,0c0,0,0.1,0,0.1,0c0.1,0,0.2,0,0.3,0  c0,0,0.1,0,0.1,0c0.1,0,0.2,0,0.2,0.1c0,0,0.1,0,0.1,0.1c0.1,0,0.1,0.1,0.2,0.1l3,1.9c0.9,0.6,1.2,1.8,0.6,2.8  c-0.2,0.4-0.6,0.6-1,0.8c0.9,0.8,2,1.3,3.3,1.3c1.6,0,3-0.7,4-2c0.7-0.9,1.9-1.1,2.8-0.4C82.6,86.2,82.7,87.5,82.1,88.3z M84.6,79.8  l-2,3.1c-0.3,0.4-0.7,0.8-1.3,0.9c-0.1,0-0.3,0-0.4,0c-0.4,0-0.7-0.1-1.1-0.3l-3-1.9c-0.9-0.6-1.2-1.8-0.6-2.8  c0.3-0.4,0.6-0.7,1-0.8c-0.9-0.8-2.1-1.4-3.4-1.4c-1.5,0-2.9,0.6-3.8,1.8c-0.7,0.8-2,1-2.8,0.2c-0.8-0.7-1-2-0.2-2.8  c1.7-2,4.2-3.2,6.9-3.2c3.3,0,6.2,1.8,7.8,4.5c0.6-0.5,1.6-0.6,2.3-0.1C84.9,77.6,85.2,78.9,84.6,79.8z"/><text x="0" y="115" fill="#000000" font-size="5px" font-weight="bold" font-family="'Helvetica Neue', Helvetica, Arial-Unicode, Arial, Sans-serif">Created by Pravin Unagar</text><text x="0" y="120" fill="#000000" font-size="5px" font-weight="bold" font-family="'Helvetica Neue', Helvetica, Arial-Unicode, Arial, Sans-serif">from the Noun Project</text></svg>