<svg xmlns="http://www.w3.org/2000/svg" viewBox="0 0 32 40" enable-background="new 0 0 32 32" x="0px" y="0px"><g><path d="M14 32c-.167 0-.335-.042-.487-.127-.361-.201-.561-.604-.502-1.015l.762-5.339c-2.406-1.912-3.773-4.635-3.773-7.561 0-5.537 4.935-10.042 11-10.042s11 4.504 11 10.042-4.935 10.042-11 10.042c-.565 0-1.134-.04-1.694-.12l-4.666 3.889c-.183.153-.411.231-.64.231zm7-22.083c-4.962 0-9 3.607-9 8.042 0 2.464 1.248 4.761 3.424 6.301.306.217.465.587.412.958l-.479 3.351 3.018-2.516c.229-.188.529-.271.82-.215.594.107 1.201.162 1.805.162 4.963 0 9-3.607 9-8.042 0-4.434-4.037-8.041-9-8.041zM4 24.083c-.167 0-.335-.042-.487-.127-.361-.201-.561-.604-.502-1.015l.762-5.338c-2.406-1.911-3.773-4.636-3.773-7.561 0-5.538 4.935-10.042 11-10.042 4.147 0 7.898 2.099 9.79 5.479.271.481.099 1.091-.384 1.361-.481.27-1.092.098-1.36-.384-1.539-2.748-4.622-4.456-8.046-4.456-4.962 0-9 3.607-9 8.042 0 2.464 1.248 4.761 3.424 6.302.306.216.465.586.412.958l-.478 3.35 2.141-1.785c.424-.354 1.054-.296 1.408.128.354.425.296 1.056-.128 1.409l-4.139 3.448c-.183.153-.411.231-.64.231zM21.8 22.2c-.256 0-.512-.098-.707-.293-.391-.391-.391-1.023 0-1.414l2.493-2.493-2.493-2.493c-.391-.391-.391-1.023 0-1.414s1.023-.391 1.414 0l3.2 3.2c.391.391.391 1.023 0 1.414l-3.2 3.2c-.195.196-.451.293-.707.293zM25 19h-8c-.552 0-1-.447-1-1s.448-1 1-1h8c.553 0 1 .447 1 1s-.447 1-1 1z"/></g><text x="0" y="47" fill="#000000" font-size="5px" font-weight="bold" font-family="'Helvetica Neue', Helvetica, Arial-Unicode, Arial, Sans-serif">Created by ✦ Shmidt Sergey ✦</text><text x="0" y="52" fill="#000000" font-size="5px" font-weight="bold" font-family="'Helvetica Neue', Helvetica, Arial-Unicode, Arial, Sans-serif">from the Noun Project</text></svg>